<svg xmlns="http://www.w3.org/2000/svg" width="103.40963842962594" height="101.55422004453828" fill="none"><rect id="backgroundrect" width="100%" height="100%" x="0" y="0" fill="none" stroke="none" class="" style=""/>






<g class="currentLayer" style=""><title>Layer 1</title><circle cx="50" cy="50" r="48.75" stroke="#DEB464" stroke-width="2.5" id="svg_2"/><path d="M76 35.7429H73.3214V66.9929C73.3232 67.4585 72.9661 67.8474 72.5018 67.8858L70.2152 68.0732C69.5551 68.1277 68.8968 68.1953 68.2411 68.276C68.0284 68.3017 67.8169 68.3357 67.6055 68.3653C67.1634 68.4242 66.7222 68.4839 66.2823 68.5537C66.026 68.5947 65.7714 68.6426 65.5159 68.6875C65.1222 68.7564 64.7277 68.8248 64.3349 68.9024C64.0668 68.9561 63.7991 69.0162 63.5257 69.0742C63.1517 69.1536 62.7776 69.2347 62.4062 69.3232C62.1276 69.3894 61.8499 69.4596 61.573 69.5302C61.2116 69.6196 60.852 69.716 60.4927 69.8162C60.2133 69.893 59.9338 69.9741 59.6552 70.056C59.2982 70.1615 58.9464 70.2688 58.5937 70.3812C58.3177 70.4706 58.0413 70.56 57.7662 70.6489C57.4131 70.7679 57.0617 70.8909 56.7116 71.0178C56.4439 71.115 56.1758 71.2126 55.902 71.3151C55.7795 71.3617 55.6579 71.4114 55.5358 71.459H76V35.7429Z" fill="#DEB464" id="svg_3"/><path d="M71.5357 66.1707V30.4642L70.1733 30.5785C64.7094 31.0301 59.35 32.3363 54.2911 34.4498L51.8929 35.4456V71.0108L53.6393 70.2849C58.8744 68.1068 64.4173 66.7592 70.0678 66.2901L71.5357 66.1707Z" fill="#DEB464" id="svg_4"/><path d="M31.8267 30.5785L30.4643 30.4642V66.1733L32.049 66.308C37.6961 66.7802 43.2342 68.136 48.4605 70.3259L50.1072 71.0108V35.4456L47.7115 34.4507C42.6521 32.3367 37.2919 31.0301 31.8267 30.5785Z" fill="#DEB464" id="svg_5"/><path d="M26 35.7429V71.4572H46.4786C46.3687 71.414 46.2589 71.3678 46.1481 71.3269C45.8927 71.2296 45.635 71.1368 45.3778 71.043C45.0151 70.9114 44.6528 70.7832 44.2874 70.6607C44.0232 70.5713 43.7582 70.4846 43.4927 70.4C43.1304 70.281 42.7668 70.1689 42.4028 70.0643C42.1346 69.9858 41.867 69.9069 41.5993 69.8319C41.2322 69.7304 40.8642 69.634 40.4954 69.5394C40.2277 69.4705 39.9596 69.4016 39.6858 69.3375C39.3118 69.2482 38.9355 69.1662 38.5597 69.0856C38.292 69.0276 38.0239 68.9687 37.7562 68.9151C37.3669 68.8384 36.9759 68.7695 36.5848 68.701C36.3285 68.6561 36.0721 68.6117 35.8153 68.5659C35.3837 68.4974 34.9508 68.4395 34.5179 68.381C34.299 68.3518 34.0819 68.3169 33.8635 68.2921C33.2087 68.2128 32.5539 68.1452 31.899 68.0894L29.4956 67.8858C29.0321 67.8461 28.6768 67.4577 28.6786 66.9929V35.7429H26Z" fill="#DEB464" id="svg_6"/></g></svg>