<svg xmlns="http://www.w3.org/2000/svg" width="101.20481921481291" height="101.55422004453828" fill="none"><rect id="backgroundrect" width="100%" height="100%" x="0" y="0" fill="none" stroke="none" class="selected" style=""/>





<g class="currentLayer" style=""><title>Layer 1</title><circle cx="50" cy="50" r="48.75" stroke="#DEB464" stroke-width="2.5" id="svg_2"/><path d="M45.2235 64.4015C42.2619 64.4015 39.8525 66.8085 39.8525 69.7672C39.8525 72.7259 42.2619 75.1329 45.2235 75.1329C48.1851 75.1329 50.5946 72.7259 50.5946 69.7672C50.5946 66.8085 48.1851 64.4015 45.2235 64.4015Z" fill="#DEB464" id="svg_3"/><path d="M61.3367 64.4015C58.375 64.4015 55.9656 66.8085 55.9656 69.7672C55.9656 72.7259 58.3749 75.1329 61.3367 75.1329C64.2983 75.1329 66.7077 72.7259 66.7077 69.7672C66.7077 66.8085 64.2983 64.4015 61.3367 64.4015Z" fill="#DEB464" id="svg_4"/><path d="M71.7896 42.8628L37.4745 34.0529C36.9301 33.9131 36.3523 34.0669 35.9495 34.4585C35.5468 34.8502 35.3774 35.4232 35.5027 35.9705L40.7772 59.0343H38.7119L32.4006 31.4371C32.26 30.8222 31.7736 30.3459 31.1558 30.2183L19.9377 27.9007C19.0665 27.721 18.2138 28.2813 18.0336 29.1527C17.8536 30.0242 18.4141 30.8766 19.2856 31.0568L29.4899 33.1648L35.8567 61.0047C36.0243 61.7373 36.6759 62.2568 37.4275 62.2568H69.1327C69.9334 62.2568 70.6181 61.6609 70.7287 60.867L72.9845 44.6433C73.0972 43.8326 72.5831 43.0664 71.7896 42.8628ZM50.4051 53.1336C50.4051 54.0226 49.6836 54.7433 48.7938 54.7433C47.9039 54.7433 47.1824 54.0226 47.1824 53.1336V46.0508C47.1824 45.1618 47.9039 44.4411 48.7938 44.4411C49.6836 44.4411 50.4051 45.1618 50.4051 46.0508V53.1336ZM57.301 53.1335C57.301 54.0225 56.5796 54.7432 55.6897 54.7432C54.7998 54.7432 54.0784 54.0225 54.0784 53.1335V48.197C54.0784 47.308 54.7998 46.5873 55.6897 46.5873C56.5796 46.5873 57.301 47.308 57.301 48.197V53.1335ZM64.1969 53.1335C64.1969 54.0225 63.4754 54.7432 62.5855 54.7432C61.6957 54.7432 60.9742 54.0225 60.9742 53.1335V49.9141C60.9742 49.025 61.6957 48.3043 62.5855 48.3043C63.4754 48.3043 64.1969 49.025 64.1969 49.9141V53.1335Z" fill="#DEB464" id="svg_5"/></g></svg>