<svg xmlns="http://www.w3.org/2000/svg" width="100" height="101.55422004453828" fill="none" style=""><rect id="backgroundrect" width="100%" height="100%" x="0" y="0" fill="none" stroke="none" class="selected" style=""/>



<defs>
<clipPath id="clip0">
<rect width="60" height="31.395299911499023" fill="white" y="33.35129928588867" x="20" id="svg_1"/>
</clipPath>
</defs>
<g class="currentLayer" style=""><title>Layer 1</title><circle cx="50" cy="50" r="48.75" stroke="#DEB464" stroke-width="2.5" id="svg_3"/><g clip-path="url(#clip0)" id="svg_4">
<path d="M67.676 39.0512C72.4708 41.8946 76.527 45.4849 79.0151 50.6345C79.6112 51.8531 79.9741 53.1634 80.0777 54.5261C80.298 57.6054 78.8078 59.6757 76.2548 61.0909C73.8186 62.4405 71.1361 63.0301 68.4276 63.4363C61.2224 64.4977 53.9654 64.3929 46.7214 64.3536C41.9006 64.3274 37.0929 64.1439 32.324 63.4363C29.8877 63.0695 27.4903 62.5453 25.2354 61.5102C20.8553 59.5054 19.4687 56.1116 21.1663 51.591C21.9698 49.4683 23.1879 47.5945 24.6393 45.8911C26.9978 43.1263 29.7581 40.8464 32.9201 39.0512C33.4384 39.6278 33.4903 40.4009 33.7365 41.0822C34.527 43.3884 35.2656 45.7208 36.0432 48.04C36.3412 48.9311 37.2095 49.429 38.0259 49.2455C38.8034 49.0621 39.4903 48.158 39.3866 47.4111C39.1145 45.5111 38.8034 43.6243 38.5443 41.7243C38.311 40.0209 37.9741 38.3306 37.8574 36.614C40.7473 35.4871 43.7149 34.7141 46.7991 34.3865C46.9676 34.3734 47.1361 34.3734 47.3175 34.3603C47.5248 36.7189 47.7322 39.0774 47.9395 41.436C48.1209 43.5849 48.3024 45.7208 48.4967 47.8697C48.5356 48.3676 48.5745 48.8656 48.6523 49.3635C48.7948 50.1497 49.5464 50.7655 50.2592 50.7131C51.2181 50.6476 51.9179 49.9007 51.9957 48.8393C52.1382 47.149 52.2678 45.4587 52.4233 43.7684C52.5788 41.947 52.7343 40.1257 52.9028 38.3043C53.0194 36.9809 53.162 35.6706 53.2916 34.3472C56.5572 34.583 59.7062 35.3823 62.7386 36.6009C62.6868 38.8547 62.1555 41.0429 61.8963 43.2705C61.7278 44.6987 61.4816 46.1139 61.3391 47.5421C61.2613 48.2628 61.7667 48.9704 62.3758 49.2062C62.9978 49.4421 63.7365 49.2193 64.2419 48.6428C64.5399 48.3021 64.6825 47.8959 64.8121 47.4766C65.6414 44.9084 66.4708 42.3401 67.3132 39.7719C67.365 39.5098 67.3909 39.2085 67.676 39.0512ZM61.4039 61.8771C61.4039 61.8902 61.4039 61.9033 61.4039 61.9164C62.4017 61.8246 63.4125 61.746 64.4104 61.6281C64.9805 61.5626 65.3434 61.2612 65.2916 60.6323C65.2397 60.095 64.7084 59.7281 64.0993 59.7805C63.7624 59.8067 63.4125 59.8461 63.0756 59.8854C62.2462 60.0033 61.4039 60.0164 60.5615 60.0426C59.9913 60.0688 59.6155 60.5012 59.6155 61.0122C59.6155 61.5364 59.9784 61.8509 60.6263 61.8771C60.8985 61.8771 61.1576 61.8771 61.4039 61.8771Z" fill="#DEB464" id="svg_5"/>
</g></g></svg>