<svg xmlns="http://www.w3.org/2000/svg" width="102.79518078518709" height="101.55422004453828" fill="none" style=""><rect id="backgroundrect" width="100%" height="100%" x="0" y="0" fill="none" stroke="none" class="selected" style=""/>




<g class="currentLayer" style=""><title>Layer 1</title><circle cx="52" cy="50" r="48.75" stroke="#DEB464" stroke-width="2.5" id="svg_2"/><path d="M37.5109 30.8999L25.1039 48.523C23.325 51.0406 22.6466 54.116 23.1743 57.1461C23.7019 60.1913 25.3903 62.8446 27.9079 64.6235C30.4255 66.4024 33.5009 67.0808 36.531 66.5532C39.5612 66.0255 42.2295 64.3371 44.0084 61.8195L56.4154 44.1964C56.5511 44.0004 56.6868 43.7893 56.8074 43.5933C57.6818 42.1612 58.2245 40.6084 58.4205 39.0255C58.918 35.1662 57.4406 31.1712 54.2747 28.5933C54.0637 28.4275 53.8376 28.2617 53.6114 28.0959C48.4104 24.4325 41.1893 25.6989 37.5109 30.8999ZM52.3149 29.9501C56.5059 32.9049 57.5159 38.7089 54.5612 42.8999L49.0134 50.7843L33.8175 40.0808L39.3652 32.1964C42.32 28.0205 48.124 27.0104 52.3149 29.9501Z" fill="#DEB464" id="svg_3"/><path d="M68.129 44.4075C61.1944 44.4075 55.5713 50.0306 55.5713 56.9653C55.5713 63.8999 61.1944 69.523 68.129 69.523C75.0637 69.523 80.6868 63.8999 80.6868 56.9653C80.6868 50.0306 75.0637 44.4075 68.129 44.4075ZM72.9833 61.8195C72.8024 62.0004 72.5461 62.106 72.3049 62.106C72.0637 62.106 71.8225 62.0155 71.6265 61.8195L63.2898 53.4828C62.913 53.106 62.913 52.5029 63.2898 52.1261C63.6667 51.7492 64.2697 51.7492 64.6466 52.1261L72.9833 60.4627C73.3451 60.8396 73.3451 61.4426 72.9833 61.8195Z" fill="#DEB464" id="svg_4"/></g></svg>