<svg xmlns="http://www.w3.org/2000/svg" width="99.83132748154594" height="102.02409607406494" fill="none" style=""><rect id="backgroundrect" width="100%" height="100%" x="0" y="0" fill="none" stroke="none" class="selected" style=""/>





<g class="currentLayer" style=""><title>Layer 1</title><circle cx="49.84337615966797" cy="51.20481872558594" r="48.75" stroke="#DEB464" stroke-width="2.5" id="svg_2" class=""/><path d="M49.55934759445191,54.26692880363464 C50.58594759445191,51.83412880363464 51.45624759445191,49.925628803634645 52.170547594451904,48.54172880363464 C52.70624759445191,47.515128803634646 53.20884759445191,46.65002880363464 53.6776475944519,45.94692880363464 C54.14584759445191,45.243728803634646 54.7154475944519,44.55732880363465 55.3848475944519,43.88782880363464 C56.055047594451906,43.218028803634645 56.82474759445191,42.71532880363464 57.6957475944519,42.38082880363464 C58.565747594451906,42.04602880363464 59.536147594451904,41.87862880363464 60.60814759445191,41.87862880363464 H69.1791475944519 V48.307228803634644 C69.1791475944519,48.59742880363464 69.2851475944519,48.84872880363464 69.4971475944519,49.06052880363465 C69.7091475944519,49.272628803634646 69.96014759445191,49.378528803634644 70.2501475944519,49.378528803634644 C70.5631475944519,49.378528803634644 70.82014759445191,49.27842880363465 71.0201475944519,49.077428803634646 L81.7341475944519,38.36342880363464 C81.93614759445191,38.162328803634644 82.0361475944519,37.905928803634644 82.0361475944519,37.59332880363464 C82.0361475944519,37.28062880363464 81.93614759445191,37.024128803634646 81.7341475944519,36.82232880363464 L71.0531475944519,26.141328803634643 C70.7861475944519,25.918328803634644 70.5171475944519,25.807228803634644 70.2501475944519,25.807228803634644 C69.9371475944519,25.807228803634644 69.6811475944519,25.907528803634644 69.4791475944519,26.108628803634645 C69.2791475944519,26.30952880363464 69.1791475944519,26.566028803634644 69.1791475944519,26.878528803634644 V33.30672880363464 H60.60814759445191 C59.090147594451906,33.30672880363464 57.6618475944519,33.491328803634644 56.32224759445191,33.859528803634646 C54.982647594451905,34.227828803634644 53.793847594451904,34.69632880363464 52.7560475944519,35.26582880363464 C51.7179475944519,35.83502880363464 50.7136475944519,36.599428803634645 49.742547594451906,37.559428803634646 C48.7714475944519,38.518928803634644 47.945447594451906,39.44562880363464 47.26494759445191,40.33842880363464 C46.5843475944519,41.23102880363464 45.86974759445191,42.34692880363465 45.1221475944519,43.68642880363464 C44.3746475944519,45.02572880363464 43.7718475944519,46.19772880363465 43.3142475944519,47.20202880363465 C42.85654759445191,48.20662880363464 42.30424759445191,49.445528803634645 41.65694759445191,50.918828803634646 C40.63004759445191,53.35172880363464 39.7595475944519,55.26052880363464 39.04534759445191,56.64432880363464 C38.50974759445191,57.670928803634645 38.00714759445191,58.53612880363465 37.538747594451905,59.23922880363465 C37.07004759445191,59.94242880363464 36.5004475944519,60.62862880363464 35.8309475944519,61.29822880363464 C35.16124759445191,61.968428803634644 34.39114759445191,62.470828803634646 33.5205475944519,62.80562880363464 C32.6502475944519,63.140328803634645 31.6790475944519,63.30802880363464 30.607747594451908,63.30802880363464 H23.10784759445191 C22.795247594451908,63.30802880363464 22.538447594451902,63.407628803634644 22.337747594451905,63.60892880363464 C22.137347594451903,63.809628803634645 22.036647594451907,64.06572880363464 22.036647594451907,64.37862880363464 V70.80782880363465 C22.036647594451907,71.12012880363464 22.137647594451906,71.37702880363464 22.338547594451903,71.57832880363465 C22.539547594451903,71.77912880363465 22.7965475944519,71.87942880363464 23.1087475944519,71.87942880363464 H30.608847594451902 C32.12704759445191,71.87942880363464 33.5552475944519,71.69482880363465 34.8947475944519,71.32632880363464 C36.23404759445191,70.95782880363464 37.4229475944519,70.48912880363464 38.46054759445191,69.92012880363464 C39.4988475944519,69.35062880363465 40.5031475944519,68.58602880363465 41.47414759445191,67.62602880363464 C42.444947594451904,66.66682880363464 43.27124759445191,65.73982880363465 43.95194759445191,64.84732880363464 C44.6323475944519,63.954328803634645 45.3467475944519,62.838528803634645 46.0946475944519,61.49942880363464 C46.8421475944519,60.15972880363464 47.44514759445191,58.987928803634645 47.9024475944519,57.98372880363464 C48.3597475944519,56.979128803634644 48.9119475944519,55.74062880363464 49.55934759445191,54.26692880363464 z" fill="#DEB464" class="" id="svg_8"/><path d="M23.107447594451898,41.87822880363464 H30.6075475944519 C31.589647594451904,41.87822880363464 32.4991475944519,42.04022880363464 33.33634759445191,42.36412880363464 C34.173547594451904,42.688028803634644 34.87664759445191,43.078428803634644 35.4457475944519,43.53622880363464 C36.01494759445191,43.994128803634645 36.584147594451906,44.62442880363464 37.1533475944519,45.42792880363464 C37.72244759445191,46.23182880363464 38.17454759445191,46.94072880363464 38.50934759445191,47.55412880363464 C38.843947594451905,48.16822880363464 39.2568475944519,48.97752880363464 39.748047594451904,49.98182880363464 C41.4671475944519,45.94162880363464 42.9957475944519,42.894828803634645 44.33514759445191,40.84122880363464 C40.7637475944519,35.819028803634644 36.18784759445191,33.30742880363464 30.607447594451898,33.30742880363464 H23.107447594451898 C22.794747594451906,33.30742880363464 22.537947594451907,33.40772880363464 22.337347594451906,33.608828803634644 C22.136847594451908,33.80952880363464 22.036147594451904,34.066028803634644 22.036147594451904,34.37862880363464 V40.80732880363465 C22.036147594451904,41.12012880363464 22.1364475944519,41.376228803634646 22.337347594451906,41.57702880363465 C22.538447594451902,41.778128803634644 22.795247594451908,41.87822880363464 23.107447594451898,41.87822880363464 z" fill="#DEB464" class="" id="svg_9"/><path d="M71.0541475944519,56.745138404846195 C70.7861475944519,56.52213840484619 70.5181475944519,56.41133840484619 70.2501475944519,56.41133840484619 C69.9381475944519,56.41133840484619 69.6811475944519,56.51123840484619 69.4801475944519,56.71223840484619 C69.2801475944519,56.91283840484619 69.1791475944519,57.16973840484619 69.1791475944519,57.481838404846194 V63.911138404846184 H60.60814759445191 C59.62514759445191,63.911138404846184 58.71604759445191,63.7489384048462 57.8788475944519,63.424838404846184 C57.0415475944519,63.10123840484619 56.33844759445191,62.71083840484619 55.769447594451904,62.25293840484619 C55.2007475944519,61.795438404846195 54.63124759445191,61.164638404846194 54.0621475944519,60.36073840484619 C53.49264759445191,59.55713840484619 53.0403475944519,58.84813840484619 52.705647594451904,58.23393840484619 C52.3711475944519,57.62103840484619 51.958247594451905,56.810838404846194 51.4671475944519,55.80723840484619 C49.7484475944519,59.82483840484619 48.2308475944519,62.87173840484619 46.9136475944519,64.9478384048462 C47.516047594451905,65.8182384048462 48.14114759445191,66.59403840484619 48.78844759445191,67.27433840484619 C49.43564759445191,67.95493840484619 50.0496475944519,68.55213840484619 50.629947594451906,69.06573840484619 C51.2103475944519,69.57873840484619 51.868747594451904,70.0257384048462 52.60524759445191,70.40453840484619 C53.3420475944519,70.78413840484619 53.989047594451904,71.10213840484619 54.5476475944519,71.35903840484619 C55.1071475944519,71.6157384048462 55.8095475944519,71.82213840484619 56.65744759445191,71.9786384048462 C57.50544759445191,72.13433840484619 58.2197475944519,72.25233840484618 58.8001475944519,72.3293384048462 C59.3801475944519,72.4072384048462 60.173147594451905,72.46343840484619 61.17714759445191,72.4971384048462 C62.1811475944519,72.5308384048462 62.9961475944519,72.5412384048462 63.6211475944519,72.5308384048462 C64.2461475944519,72.51953840484619 65.15014759445191,72.50763840484619 66.3341475944519,72.4971384048462 C67.5171475944519,72.48623840484619 68.4651475944519,72.4803384048462 69.18014759445191,72.4803384048462 V78.90913840484619 C69.18014759445191,79.1992384048462 69.2861475944519,79.4504384048462 69.49814759445191,79.6623384048462 C69.71014759445191,79.87433840484618 69.9611475944519,79.98023840484619 70.25114759445191,79.98023840484619 C70.56414759445191,79.98023840484619 70.82014759445191,79.88003840484619 71.0201475944519,79.67933840484619 L81.7351475944519,68.96553840484619 C81.93614759445191,68.76403840484619 82.0361475944519,68.50803840484619 82.0361475944519,68.19503840484619 C82.0361475944519,67.8823384048462 81.93614759445191,67.6259384048462 81.7341475944519,67.42533840484619 L71.0541475944519,56.745138404846195 z" fill="#DEB464" class="" id="svg_6"/></g></svg>