<svg xmlns="http://www.w3.org/2000/svg" width="64.36145145201931" height="62.91566632603451" fill="none" style=""><rect id="backgroundrect" width="100%" height="100%" x="0" y="0" fill="none" stroke="none" class="selected" style=""/>



<g class="currentLayer" style=""><title>Layer 1</title><circle cx="33.38554382324219" cy="31.204819202423096" r="29" fill="white" stroke="#00903A" stroke-width="2" id="svg_1" class=""/><circle cx="33.38554382324219" cy="31.204819202423096" r="29" fill="white" stroke="#00903A" stroke-width="2" class="" id="svg_3"/><circle cx="33.38554382324219" cy="31.204819202423096" r="29" fill="white" stroke="#00903A" stroke-width="2" class="" id="svg_6"/><path d="M31.30874382324218,49.204819202423096 C30.975443823242188,49.204819202423096 30.67544382324219,49.088119202423094 30.40874382324219,48.854819202423094 C30.17544382324219,48.588119202423094 30.05874382324218,48.2881192024231 30.05874382324218,47.954819202423096 V24.154819202423095 L23.208743823242187,29.404819202423095 C22.975443823242188,29.604819202423094 22.725443823242188,29.704819202423096 22.458743823242187,29.704819202423096 C22.092143823242182,29.704819202423096 21.758743823242185,29.504819202423096 21.458743823242187,29.104819202423094 L18.508743823242185,25.254819202423096 C18.342143823242182,24.988119202423096 18.258743823242185,24.738119202423096 18.258743823242185,24.504819202423096 C18.258743823242185,24.038119202423097 18.458743823242187,23.688119202423096 18.858743823242193,23.454819202423096 L30.358743823242193,14.554819202423095 C30.725443823242188,14.321519202423096 31.125443823242193,14.204819202423096 31.55874382324218,14.204819202423096 H37.80874382324218 C38.17544382324219,14.204819202423096 38.47544382324219,14.321519202423096 38.70874382324219,14.554819202423095 C38.94214382324219,14.788119202423095 39.05874382324218,15.088119202423096 39.05874382324218,15.454819202423096 V47.954819202423096 C39.05874382324218,48.2881192024231 38.94214382324219,48.588119202423094 38.70874382324219,48.854819202423094 C38.47544382324219,49.088119202423094 38.17544382324219,49.204819202423096 37.80874382324218,49.204819202423096 H31.30874382324218 z" fill="#079139" class="" id="svg_7"/><path d="M31.30874382324218,49.204819202423096 C30.975443823242188,49.204819202423096 30.67544382324219,49.088119202423094 30.40874382324219,48.854819202423094 C30.17544382324219,48.588119202423094 30.05874382324218,48.2881192024231 30.05874382324218,47.954819202423096 V24.154819202423095 L23.208743823242187,29.404819202423095 C22.975443823242188,29.604819202423094 22.725443823242188,29.704819202423096 22.458743823242187,29.704819202423096 C22.092143823242182,29.704819202423096 21.758743823242185,29.504819202423096 21.458743823242187,29.104819202423094 L18.508743823242185,25.254819202423096 C18.342143823242182,24.988119202423096 18.258743823242185,24.738119202423096 18.258743823242185,24.504819202423096 C18.258743823242185,24.038119202423097 18.458743823242187,23.688119202423096 18.858743823242193,23.454819202423096 L30.358743823242193,14.554819202423095 C30.725443823242188,14.321519202423096 31.125443823242193,14.204819202423096 31.55874382324218,14.204819202423096 H37.80874382324218 C38.17544382324219,14.204819202423096 38.47544382324219,14.321519202423096 38.70874382324219,14.554819202423095 C38.94214382324219,14.788119202423095 39.05874382324218,15.088119202423096 39.05874382324218,15.454819202423096 V47.954819202423096 C39.05874382324218,48.2881192024231 38.94214382324219,48.588119202423094 38.70874382324219,48.854819202423094 C38.47544382324219,49.088119202423094 38.17544382324219,49.204819202423096 37.80874382324218,49.204819202423096 H31.30874382324218 z" fill="#079139" class="" id="svg_8"/><path d="M31.30874382324218,49.204819202423096 C30.975443823242188,49.204819202423096 30.67544382324219,49.088119202423094 30.40874382324219,48.854819202423094 C30.17544382324219,48.588119202423094 30.05874382324218,48.2881192024231 30.05874382324218,47.954819202423096 V24.154819202423095 L23.208743823242187,29.404819202423095 C22.975443823242188,29.604819202423094 22.725443823242188,29.704819202423096 22.458743823242187,29.704819202423096 C22.092143823242182,29.704819202423096 21.758743823242185,29.504819202423096 21.458743823242187,29.104819202423094 L18.508743823242185,25.254819202423096 C18.342143823242182,24.988119202423096 18.258743823242185,24.738119202423096 18.258743823242185,24.504819202423096 C18.258743823242185,24.038119202423097 18.458743823242187,23.688119202423096 18.858743823242193,23.454819202423096 L30.358743823242193,14.554819202423095 C30.725443823242188,14.321519202423096 31.125443823242193,14.204819202423096 31.55874382324218,14.204819202423096 H37.80874382324218 C38.17544382324219,14.204819202423096 38.47544382324219,14.321519202423096 38.70874382324219,14.554819202423095 C38.94214382324219,14.788119202423095 39.05874382324218,15.088119202423096 39.05874382324218,15.454819202423096 V47.954819202423096 C39.05874382324218,48.2881192024231 38.94214382324219,48.588119202423094 38.70874382324219,48.854819202423094 C38.47544382324219,49.088119202423094 38.17544382324219,49.204819202423096 37.80874382324218,49.204819202423096 H31.30874382324218 z" fill="#079139" class="" id="svg_5"/><path d="M31.30874382324218,49.204819202423096 C30.975443823242188,49.204819202423096 30.67544382324219,49.088119202423094 30.40874382324219,48.854819202423094 C30.17544382324219,48.588119202423094 30.05874382324218,48.2881192024231 30.05874382324218,47.954819202423096 V24.154819202423095 L23.208743823242187,29.404819202423095 C22.975443823242188,29.604819202423094 22.725443823242188,29.704819202423096 22.458743823242187,29.704819202423096 C22.092143823242182,29.704819202423096 21.758743823242185,29.504819202423096 21.458743823242187,29.104819202423094 L18.508743823242185,25.254819202423096 C18.342143823242182,24.988119202423096 18.258743823242185,24.738119202423096 18.258743823242185,24.504819202423096 C18.258743823242185,24.038119202423097 18.458743823242187,23.688119202423096 18.858743823242193,23.454819202423096 L30.358743823242193,14.554819202423095 C30.725443823242188,14.321519202423096 31.125443823242193,14.204819202423096 31.55874382324218,14.204819202423096 H37.80874382324218 C38.17544382324219,14.204819202423096 38.47544382324219,14.321519202423096 38.70874382324219,14.554819202423095 C38.94214382324219,14.788119202423095 39.05874382324218,15.088119202423096 39.05874382324218,15.454819202423096 V47.954819202423096 C39.05874382324218,48.2881192024231 38.94214382324219,48.588119202423094 38.70874382324219,48.854819202423094 C38.47544382324219,49.088119202423094 38.17544382324219,49.204819202423096 37.80874382324218,49.204819202423096 H31.30874382324218 z" fill="#079139" id="svg_2" class=""/></g></svg>