<svg xmlns="http://www.w3.org/2000/svg" width="62" height="64.61445764443886" fill="none"><rect id="backgroundrect" width="37.850197278039744" height="38.62679851858279" x="-0.6024096012115479" y="0.6024096012115479" fill="none" stroke="none" class="selected" style=""/>



<g class="currentLayer" style=""><title>Layer 1</title><circle cx="29.71084475517273" cy="32.40963840484619" r="29" fill="white" stroke="#00903A" stroke-width="2" id="svg_2" class=""/><path d="M18.710683160018924,51.01204800605774 C18.34408316001892,51.01204800605774 18.02738316001892,50.89534800605774 17.76068316001892,50.66204800605774 C17.52738316001892,50.42874800605774 17.41068316001892,50.12874800605774 17.41068316001892,49.76204800605774 V46.21204800605774 C17.41068316001892,45.21204800605774 17.82738316001892,44.39534800605774 18.66068316001892,43.76204800605774 L23.860683160018922,38.66204800605774 C26.894083160018923,36.32874800605774 29.19408316001892,34.51204800605774 30.76068316001892,33.21204800605774 C32.32738316001892,31.912048006057738 33.51068316001892,30.72874800605774 34.31068316001892,29.662048006057738 C35.11068316001892,28.59534800605774 35.51068316001892,27.57874800605774 35.51068316001892,26.61204800605774 C35.51068316001892,23.97874800605774 34.210683160018924,22.662048006057738 31.610683160018922,22.662048006057738 C30.244083160018924,22.662048006057738 29.19408316001892,23.07874800605774 28.460683160018924,23.912048006057738 C27.727383160018924,24.71204800605774 27.244083160018924,25.72874800605774 27.01068316001892,26.96204800605774 C26.810683160018918,27.72874800605774 26.244083160018924,28.11204800605774 25.310683160018918,28.11204800605774 H19.060683160018918 C18.76068316001892,28.11204800605774 18.51068316001892,28.01204800605774 18.310683160018918,27.81204800605774 C18.110683160018922,27.61204800605774 18.01068316001892,27.36204800605774 18.01068316001892,27.06204800605774 C18.07738316001892,24.928748006057738 18.66068316001892,22.97874800605774 19.76068316001892,21.21204800605774 C20.894083160018923,19.412048006057738 22.477383160018924,17.99534800605774 24.51068316001892,16.96204800605774 C26.57738316001892,15.89534800605774 28.94408316001892,15.362048006057739 31.610683160018922,15.362048006057739 C34.41068316001892,15.362048006057739 36.81068316001892,15.81204800605774 38.81068316001892,16.71204800605774 C40.81068316001892,17.61204800605774 42.32738316001892,18.87874800605774 43.36068316001892,20.51204800605774 C44.39408316001892,22.145348006057738 44.91068316001892,24.04534800605774 44.91068316001892,26.21204800605774 C44.91068316001892,28.54534800605774 44.17738316001892,30.678748006057738 42.710683160018924,32.61204800605774 C41.27738316001892,34.51204800605774 39.07738316001892,36.57874800605774 36.11068316001892,38.812048006057736 L31.51068316001892,43.46204800605774 H44.36068316001892 C44.72738316001892,43.46204800605774 45.027383160018914,43.57874800605774 45.260683160018914,43.812048006057736 C45.527383160018914,44.045348006057736 45.66068316001892,44.34534800605774 45.66068316001892,44.71204800605774 V49.76204800605774 C45.66068316001892,50.12874800605774 45.527383160018914,50.42874800605774 45.260683160018914,50.66204800605774 C45.027383160018914,50.89534800605774 44.72738316001892,51.01204800605774 44.36068316001892,51.01204800605774 H18.710683160018924 z" fill="#079139" id="svg_3" class=""/></g></svg>