<svg xmlns="http://www.w3.org/2000/svg" width="61.4736842105263" height="62.84210526315792" fill="none"><rect id="backgroundrect" width="100%" height="100%" x="0" y="0" fill="none" stroke="none" class="selected" style=""/>



<g class="currentLayer" style=""><title>Layer 1</title><circle cx="30.947368621826172" cy="31.684210538864136" r="29" fill="white" stroke="#00903A" stroke-width="2" id="svg_2" class=""/><path d="M30.21786862182617,50.184210538864136 C26.98456862182617,50.184210538864136 24.267868621826175,49.684210538864136 22.06786862182617,48.684210538864136 C19.901168621826173,47.684210538864136 18.284568621826175,46.450910538864136 17.21786862182617,44.98421053886413 C16.184568621826173,43.48421053886413 15.634568621826169,41.98421053886413 15.567868621826172,40.48421053886413 C15.567868621826172,40.184210538864136 15.667868621826173,39.934210538864136 15.867868621826169,39.73421053886413 C16.10116862182617,39.53421053886414 16.36786862182617,39.434210538864136 16.667868621826173,39.434210538864136 H23.21786862182617 C23.584568621826172,39.434210538864136 23.88456862182617,39.50091053886413 24.11786862182617,39.63421053886414 C24.35116862182617,39.76751053886414 24.56786862182617,40.01751053886414 24.767868621826175,40.38421053886414 C25.434568621826173,42.11751053886414 27.251168621826174,42.98421053886413 30.21786862182617,42.98421053886413 C31.917868621826173,42.98421053886413 33.23456862182617,42.600910538864134 34.16786862182617,41.834210538864134 C35.13456862182617,41.03421053886414 35.61786862182617,39.950910538864136 35.61786862182617,38.584210538864134 C35.61786862182617,35.917510538864136 33.88456862182617,34.584210538864134 30.417868621826173,34.584210538864134 H24.86786862182617 C24.534568621826175,34.584210538864134 24.23456862182617,34.46751053886413 23.96786862182617,34.23421053886413 C23.73456862182617,33.96751053886413 23.61786862182617,33.667510538864136 23.61786862182617,33.334210538864134 V30.534210538864137 C23.61786862182617,29.800910538864137 23.88456862182617,29.234210538864136 24.417868621826173,28.834210538864134 L32.61786862182617,21.884210538864135 H18.71786862182617 C18.38456862182617,21.884210538864135 18.084568621826172,21.767510538864137 17.81786862182617,21.534210538864137 C17.584568621826172,21.267510538864137 17.46786862182617,20.967510538864136 17.46786862182617,20.634210538864135 V15.934210538864136 C17.46786862182617,15.567510538864136 17.584568621826172,15.267510538864135 17.81786862182617,15.034210538864135 C18.084568621826172,14.800910538864136 18.38456862182617,14.684210538864136 18.71786862182617,14.684210538864136 H41.71786862182617 C42.08456862182618,14.684210538864136 42.384568621826176,14.800910538864136 42.617868621826176,15.034210538864135 C42.884568621826176,15.267510538864135 43.01786862182617,15.567510538864136 43.01786862182617,15.934210538864136 V20.184210538864136 C43.01786862182617,20.817510538864134 42.75116862182617,21.367510538864135 42.21786862182617,21.834210538864134 L34.61786862182617,28.884210538864135 L34.96786862182617,28.984210538864136 C38.034568621826175,29.384210538864135 40.45116862182617,30.417510538864136 42.21786862182617,32.084210538864134 C44.01786862182617,33.71751053886413 44.91786862182617,36.067510538864134 44.91786862182617,39.13421053886414 C44.91786862182617,41.36751053886414 44.28456862182617,43.317510538864134 43.01786862182617,44.98421053886413 C41.75116862182617,46.65091053886414 40.00116862182617,47.934210538864136 37.767868621826175,48.834210538864134 C35.534568621826175,49.73421053886413 33.017868621826175,50.184210538864136 30.21786862182617,50.184210538864136 z" fill="#00903A" id="svg_3" class=""/></g></svg>