<svg xmlns="http://www.w3.org/2000/svg" width="60.94736842105266" height="62.42105263157896" fill="none" style=""><rect id="backgroundrect" width="100%" height="100%" x="0" y="0" fill="none" stroke="none" class="selected" style=""/>



<g class="currentLayer" style=""><title>Layer 1</title><circle cx="30.368420600891113" cy="30.63157892227173" r="29" fill="white" stroke="#00903A" stroke-width="2" id="svg_2" class=""/><path d="M33.25302060089111,48.63157892227173 C32.919620600891115,48.63157892227173 32.61962060089111,48.51487892227173 32.353020600891114,48.28157892227173 C32.11962060089111,48.01487892227173 32.00302060089111,47.71487892227173 32.00302060089111,47.38157892227173 V41.73157892227173 H16.453020600891115 C16.086320600891113,41.73157892227173 15.786320600891113,41.61487892227173 15.553020600891113,41.38157892227173 C15.319620600891113,41.14827892227173 15.203020600891115,40.84827892227173 15.203020600891115,40.48157892227173 V35.73157892227173 C15.203020600891115,35.23157892227173 15.386320600891114,34.71487892227173 15.753020600891112,34.181578922271726 L30.303020600891116,14.481578922271728 C30.769620600891116,13.914878922271729 31.38632060089111,13.631578922271729 32.15302060089111,13.631578922271729 H39.453020600891115 C39.81962060089111,13.631578922271729 40.11962060089111,13.748278922271728 40.353020600891114,13.981578922271728 C40.58632060089111,14.214878922271728 40.703020600891115,14.514878922271729 40.703020600891115,14.881578922271729 V34.28157892227173 H45.103020600891114 C45.50302060089111,34.28157892227173 45.81962060089111,34.414878922271726 46.05302060089112,34.681578922271726 C46.286320600891116,34.914878922271726 46.40302060089111,35.198278922271726 46.40302060089111,35.53157892227173 V40.48157892227173 C46.40302060089111,40.84827892227173 46.286320600891116,41.14827892227173 46.05302060089112,41.38157892227173 C45.81962060089111,41.61487892227173 45.519620600891116,41.73157892227173 45.15302060089111,41.73157892227173 H40.703020600891115 V47.38157892227173 C40.703020600891115,47.71487892227173 40.58632060089111,48.01487892227173 40.353020600891114,48.28157892227173 C40.11962060089111,48.51487892227173 39.81962060089111,48.63157892227173 39.453020600891115,48.63157892227173 H33.25302060089111 zM32.203020600891115,34.63157892227173 V22.831578922271728 L23.803020600891116,34.63157892227173 H32.203020600891115 z" fill="#079139" id="svg_3" class=""/></g></svg>