<svg xmlns="http://www.w3.org/2000/svg" width="60.9473684210526" height="63.26315789473685" fill="none" style=""><rect id="backgroundrect" width="100%" height="100%" x="0" y="0" fill="none" stroke="none" class="selected" style=""/>



<g class="currentLayer" style=""><title>Layer 1</title><circle cx="30.842105865478516" cy="31.263157844543457" r="29" fill="white" stroke="#00903A" stroke-width="2" id="svg_2" class=""/><path d="M31.180005865478513,49.813157844543454 C28.180005865478513,49.813157844543454 25.613305865478516,49.34645784454346 23.480005865478518,48.413157844543456 C21.34670586547852,47.44645784454346 19.713305865478517,46.163157844543456 18.58000586547852,44.563157844543454 C17.480005865478518,42.96315784454346 16.896705865478516,41.22985784454346 16.83000586547852,39.36315784454346 C16.83000586547852,39.063157844543454 16.930005865478513,38.813157844543454 17.130005865478516,38.61315784454346 C17.33000586547852,38.413157844543456 17.58000586547852,38.313157844543454 17.880005865478516,38.313157844543454 H24.58000586547852 C25.34670586547852,38.313157844543454 25.880005865478516,38.62985784454346 26.180005865478513,39.26315784454346 C27.08000586547852,41.49645784454346 28.763305865478515,42.61315784454346 31.230005865478518,42.61315784454346 C32.69670586547851,42.61315784454346 33.93000586547851,42.163157844543456 34.93000586547851,41.26315784454346 C35.96330586547852,40.329857844543454 36.48000586547852,39.046457844543454 36.48000586547852,37.413157844543456 C36.48000586547852,35.94645784454346 35.98000586547852,34.74645784454346 34.98000586547852,33.813157844543454 C34.013305865478515,32.87985784454346 32.763305865478515,32.413157844543456 31.230005865478518,32.413157844543456 C30.363305865478516,32.413157844543456 29.663305865478513,32.52985784454346 29.130005865478516,32.76315784454346 C28.630005865478516,32.96315784454346 28.113305865478516,33.26315784454346 27.58000586547852,33.663157844543456 C27.013305865478515,34.09645784454346 26.56330586547852,34.313157844543454 26.230005865478518,34.313157844543454 H19.680005865478513 C19.380005865478516,34.313157844543454 19.113305865478516,34.21315784454346 18.880005865478516,34.01315784454346 C18.680005865478513,33.77985784454346 18.58000586547852,33.51315784454346 18.58000586547852,33.21315784454346 L20.380005865478516,15.763157844543457 C20.413305865478513,15.296457844543458 20.58000586547852,14.929857844543458 20.880005865478516,14.663157844543457 C21.213305865478517,14.396457844543457 21.59670586547852,14.263157844543457 22.030005865478515,14.263157844543457 H42.08000586547851 C42.44670586547852,14.263157844543457 42.74670586547852,14.379857844543457 42.98000586547852,14.613157844543457 C43.24670586547852,14.846457844543457 43.38000586547851,15.146457844543457 43.38000586547851,15.513157844543457 V20.213157844543456 C43.38000586547851,20.579857844543458 43.24670586547852,20.87985784454346 42.98000586547852,21.11315784454346 C42.74670586547852,21.34645784454346 42.44670586547852,21.463157844543456 42.08000586547851,21.463157844543456 H27.58000586547852 L26.930005865478513,27.913157844543456 C27.763305865478515,27.34645784454346 28.680005865478513,26.929857844543456 29.680005865478513,26.663157844543456 C30.680005865478513,26.36315784454346 31.980005865478518,26.213157844543456 33.58000586547852,26.213157844543456 C35.68000586547851,26.213157844543456 37.66330586547851,26.696457844543456 39.530005865478515,27.663157844543456 C41.39670586547851,28.59645784454346 42.88000586547851,29.929857844543456 43.98000586547852,31.663157844543456 C45.11330586547851,33.396457844543455 45.68000586547852,35.37985784454346 45.68000586547852,37.61315784454346 C45.68000586547852,39.97985784454346 45.09670586547851,42.09645784454346 43.93000586547852,43.96315784454346 C42.763305865478515,45.796457844543454 41.08000586547851,47.22985784454346 38.880005865478516,48.26315784454346 C36.71330586547852,49.296457844543454 34.146705865478516,49.813157844543454 31.180005865478513,49.813157844543454 z" fill="#079139" id="svg_3" class=""/></g></svg>